<svg width="36" height="36" viewBox="0 0 36 36" fill="none" xmlns="http://www.w3.org/2000/svg">
<path d="M18 36C27.9411 36 36 27.9411 36 18C36 8.05888 27.9411 0 18 0C8.05887 0 0 8.05888 0 18C0 27.9411 8.05887 36 18 36Z" fill="#2E8E87"/>
<path d="M26.3571 11.7H9.64286C9.28728 11.7 9 11.9925 9 12.3545V24.0954C9 24.4574 9.28728 24.7499 9.64286 24.7499H26.3571C26.7127 24.7499 27 24.4574 27 24.0954V12.3545C27 11.9925 26.7127 11.7 26.3571 11.7ZM24.7339 13.9275L18.3958 18.949C18.2391 19.0738 18.0201 19.0738 17.8634 18.949L11.5232 13.9275C11.4993 13.9087 11.4818 13.8827 11.4731 13.8533C11.4644 13.8239 11.4649 13.7924 11.4747 13.7633C11.4844 13.7342 11.5029 13.709 11.5274 13.6911C11.552 13.6732 11.5814 13.6636 11.6116 13.6636H24.6455C24.6757 13.6636 24.7052 13.6732 24.7297 13.6911C24.7543 13.709 24.7727 13.7342 24.7825 13.7633C24.7922 13.7924 24.7928 13.8239 24.7841 13.8533C24.7754 13.8827 24.7578 13.9087 24.7339 13.9275Z" fill="white"/>
</svg>
