<svg width="36" height="36" viewBox="0 0 36 36" fill="none" xmlns="http://www.w3.org/2000/svg">
<rect width="36" height="36" rx="18" fill="#2E8E87"/>
<path d="M26.3331 12.7436H20.4999V11H26.3331V12.7436ZM27.7715 21.4615C27.4031 22.5923 26.0806 24.0769 23.5207 24.0769C20.959 24.0769 18.884 22.5696 18.884 19.1295C18.884 15.7208 20.8215 13.9685 23.439 13.9685C26.0073 13.9685 27.5756 15.522 27.9181 17.827C27.9831 18.2682 28.0089 18.8627 27.9973 19.6927H21.3082C21.4165 22.492 24.2107 22.5801 25.1315 21.4615H27.7715ZM21.3665 17.9744H25.504C25.4165 16.6257 24.5573 16.0398 23.4398 16.0398C22.2182 16.0398 21.5424 16.7094 21.3665 17.9744ZM13.3883 24.0665H8V11.0183H13.7941C18.3574 11.0889 18.4441 15.7644 16.0607 17.0389C18.9449 18.1374 19.0415 24.0665 13.3883 24.0665ZM10.5 16.2308H13.4866C15.5766 16.2308 15.9082 13.6154 13.2266 13.6154H10.5V16.2308ZM13.3258 18.8462H10.5V21.4755H13.2841C15.8299 21.4755 15.6741 18.8462 13.3258 18.8462Z" fill="#EEEEEE"/>
</svg>
