<svg width="36" height="36" viewBox="0 0 36 36" fill="none" xmlns="http://www.w3.org/2000/svg">
<path d="M18 36C27.9411 36 36 27.9411 36 18C36 8.05888 27.9411 0 18 0C8.05887 0 0 8.05888 0 18C0 27.9411 8.05887 36 18 36Z" fill="#2E8E87"/>
<path d="M16.7062 23.2715C16.5048 23.2715 16.3116 23.3528 16.1692 23.4974C16.0268 23.6421 15.9468 23.8383 15.9468 24.0429C15.9468 24.2475 16.0268 24.4437 16.1692 24.5884C16.3116 24.7331 16.5048 24.8143 16.7062 24.8143H19.7437C19.9451 24.8143 20.1382 24.7331 20.2806 24.5884C20.423 24.4437 20.503 24.2475 20.503 24.0429C20.503 23.8383 20.423 23.6421 20.2806 23.4974C20.1382 23.3528 19.9451 23.2715 19.7437 23.2715H16.7062ZM14.8077 8.55005C14.1028 8.55005 13.4268 8.83451 12.9284 9.34086C12.4299 9.84721 12.1499 10.534 12.1499 11.25V25.2C12.1499 26.6904 13.3406 27.9 14.8077 27.9H21.6421C22.347 27.9 23.023 27.6156 23.5214 27.1092C24.0199 26.6029 24.2999 25.9161 24.2999 25.2V11.25C24.2999 10.534 24.0199 9.84721 23.5214 9.34086C23.023 8.83451 22.347 8.55005 21.6421 8.55005H14.8077ZM13.6687 11.25C13.6687 10.9432 13.7887 10.6488 14.0023 10.4318C14.2159 10.2148 14.5056 10.0929 14.8077 10.0929H21.6421C21.9442 10.0929 22.2339 10.2148 22.4475 10.4318C22.6611 10.6488 22.7812 10.9432 22.7812 11.25V25.2C22.7812 25.5069 22.6611 25.8013 22.4475 26.0183C22.2339 26.2353 21.9442 26.3572 21.6421 26.3572H14.8077C14.5056 26.3572 14.2159 26.2353 14.0023 26.0183C13.7887 25.8013 13.6687 25.5069 13.6687 25.2V11.25Z" fill="white"/>
<path fill-rule="evenodd" clip-rule="evenodd" d="M16.009 23.3395C16.1933 23.1522 16.4441 23.0464 16.7063 23.0464H19.7438C20.006 23.0464 20.2568 23.1522 20.4411 23.3395C20.6253 23.5266 20.7282 23.7797 20.7282 24.0428C20.7282 24.3059 20.6253 24.559 20.4411 24.7461C20.2568 24.9334 20.006 25.0392 19.7438 25.0392H16.7063C16.4441 25.0392 16.1933 24.9334 16.009 24.7461C15.8248 24.559 15.7219 24.3059 15.7219 24.0428C15.7219 23.7797 15.8248 23.5266 16.009 23.3395ZM12.7682 9.18292C13.3085 8.63399 14.0421 8.32495 14.8079 8.32495H21.6422C22.408 8.32495 23.1416 8.63399 23.6819 9.18292C24.2222 9.73173 24.525 10.4753 24.525 11.25V25.1999C24.525 25.9746 24.2222 26.7182 23.6819 27.267C23.1416 27.8159 22.408 28.1249 21.6422 28.1249H14.8079C13.2132 28.1249 11.925 26.8113 11.925 25.1999V11.25C11.925 10.4753 12.2279 9.73173 12.7682 9.18292ZM14.1628 10.5896C13.9909 10.7641 13.8938 11.0016 13.8938 11.25V25.1999C13.8938 25.4483 13.9909 25.6858 14.1628 25.8603C14.3345 26.0348 14.5666 26.1321 14.8079 26.1321H21.6422C21.8835 26.1321 22.1156 26.0348 22.2873 25.8603C22.4591 25.6858 22.5563 25.4483 22.5563 25.1999V11.25C22.5563 11.0016 22.4591 10.7641 22.2873 10.5896C22.1156 10.4151 21.8835 10.3178 21.6422 10.3178H14.8079C14.5666 10.3178 14.3345 10.4151 14.1628 10.5896ZM16.1693 23.4973C16.3117 23.3527 16.5049 23.2714 16.7063 23.2714H19.7438C19.9452 23.2714 20.1383 23.3527 20.2808 23.4973C20.4232 23.642 20.5032 23.8382 20.5032 24.0428C20.5032 24.2474 20.4232 24.4436 20.2808 24.5883C20.1383 24.733 19.9452 24.8142 19.7438 24.8142H16.7063C16.5049 24.8142 16.3117 24.733 16.1693 24.5883C16.0269 24.4436 15.9469 24.2474 15.9469 24.0428C15.9469 23.8382 16.0269 23.642 16.1693 23.4973ZM12.9285 9.34076C13.4269 8.83441 14.103 8.54995 14.8079 8.54995H21.6422C22.3471 8.54995 23.0232 8.83441 23.5216 9.34076C24.02 9.84711 24.3 10.5339 24.3 11.25V25.1999C24.3 25.916 24.02 26.6028 23.5216 27.1091C23.0232 27.6155 22.3471 27.8999 21.6422 27.8999H14.8079C13.3407 27.8999 12.15 26.6903 12.15 25.1999V11.25C12.15 10.5339 12.4301 9.84711 12.9285 9.34076ZM14.0024 10.4317C13.7888 10.6487 13.6688 10.9431 13.6688 11.25V25.1999C13.6688 25.5068 13.7888 25.8012 14.0024 26.0182C14.216 26.2352 14.5058 26.3571 14.8079 26.3571H21.6422C21.9443 26.3571 22.2341 26.2352 22.4477 26.0182C22.6613 25.8012 22.7813 25.5068 22.7813 25.1999V11.25C22.7813 10.9431 22.6613 10.6487 22.4477 10.4317C22.2341 10.2147 21.9443 10.0928 21.6422 10.0928H14.8079C14.5058 10.0928 14.216 10.2147 14.0024 10.4317Z" fill="white"/>
</svg>
