<svg width="148" height="64" viewBox="0 0 148 64" fill="none" xmlns="http://www.w3.org/2000/svg">
<g clip-path="url(#clip0_138_6051)">
<path d="M46.776 54L41.484 39.06L36.336 54H29.784L21.36 30.168L27.804 29.52L33.132 46.008L38.28 29.52H44.796L50.124 46.008L55.272 29.52H61.788L53.328 54H46.776ZM63.5328 54V40.4H72.5528L72.8928 43.26H67.1728V45.74H71.3528L71.6928 48.6H67.1728V51.14H73.1528L73.4928 54H63.5328ZM75.2906 54V40.4H78.6706L83.9106 47.78V40.4H87.5506V54H84.1506L78.9306 46.84V54H75.2906ZM106.133 54L102.605 44.04L99.1732 54H94.8052L89.1892 38.112L93.4852 37.68L97.0372 48.672L100.469 37.68H104.813L108.365 48.672L111.797 37.68H116.141L110.501 54H106.133ZM117.771 54V40.4H126.791L127.131 43.26H121.411V45.74H125.591L125.931 48.6H121.411V51.14H127.391L127.731 54H117.771ZM129.529 54V40.4H132.909L138.149 47.78V40.4H141.789V54H138.389L133.169 46.84V54H129.529Z" fill="#F1873F"/>
<g clip-path="url(#clip1_138_6051)">
<circle cx="26" cy="27" r="19" fill="#2E8E87"/>
<path d="M46.776 54L41.484 39.06L36.336 54H29.784L21.36 30.168L27.804 29.52L33.132 46.008L38.28 29.52H44.796L50.124 46.008L55.272 29.52H61.788L53.328 54H46.776Z" fill="white"/>
</g>
</g>
<defs>
<clipPath id="clip0_138_6051">
<rect width="148" height="64" fill="white"/>
</clipPath>
<clipPath id="clip1_138_6051">
<rect x="7" y="8.03711" width="38" height="38" rx="19" fill="white"/>
</clipPath>
</defs>
</svg>
